<?xml version="1.0" encoding="UTF-8"?><svg id="Layer_2" xmlns="http://www.w3.org/2000/svg" viewBox="0 0 740.2 740.2"><defs><style>.cls-1{fill:#fff;}.cls-2{fill:#2b2e3a;}</style></defs><g id="Layer_14"><rect class="cls-2" width="740.2" height="740.2" rx="121.24" ry="121.24"/></g><g id="Layer_6_copy_2"><path class="cls-1" d="M561.98,572.77c10.06,17.64,16.94,36.96,19.95,57.38H185.24c3.62-24.63,12.88-47.67,26.57-68.07,2.86-4.25,5.91-8.38,9.15-12.39.93-1.18,1.91-2.36,2.9-3.51,15.67-18.52,35.31-34.22,57.79-46.12,4.81-2.54,9.77-4.91,14.83-7.1,3.56-1.34,7.23-2.8,11.01-4.39,9.9-4.15,20.48-9.13,31.3-14.78,6.68-3.49,13.09-7.06,19.14-10.62,16.86-9.96,31.02-19.96,40.81-28.65-8.63-2.2-17.84-3.39-27.39-3.39-1.58,0-3.15.02-4.71.08-20.69.86-39.53,7.31-54.2,17.47-4.46,5.53-10,10.6-16.41,15.06-11.04,7.71-24.69,13.63-39.94,17.12-9.96,2.29-20.61,3.51-31.68,3.51-25.15,0-48.14-6.36-65.8-16.88v56.22c-10.82-7.28-20.51-16.08-28.78-26.1-19.2-23.24-30.72-53.04-30.72-85.53s11.64-62.59,31.01-85.87c8.58-10.32,18.66-19.35,29.95-26.71l30.69-12.82c60.86-24.33,107.59-57.19,107.59-123.82,0-1.2-.02-2.4-.06-3.59,29.01-11.84,60.75-18.36,94.02-18.36,13.16,0,26.07,1.02,38.68,2.99v69.99c-32.9,13.85-55.99,46.39-55.99,84.32,0,50.51,40.94,91.46,91.45,91.46s91.46-40.95,91.46-91.46c0-37.93-23.1-70.47-56-84.32v-47.65c47.89,23.48,87.15,61.88,111.71,109.14,8.6,25.24,13.27,52.3,13.27,80.44,0,75.03-33.16,142.31-85.6,188.01,7.89,8.99,14.83,18.68,20.69,28.94Z"/><path class="cls-1" d="M491.91,135.61v74.75c-8.08-2.35-16.63-3.6-25.46-3.6s-17.38,1.25-25.46,3.6v-74.75c0-4.27,3.46-7.73,7.73-7.73h35.47c4.26,0,7.72,3.46,7.72,7.73Z"/><path class="cls-1" d="M547.91,298.21c0,44.99-36.47,81.46-81.46,81.46s-81.45-36.47-81.45-81.46c0-32.27,18.77-60.16,45.99-73.35,3.22-1.55,6.56-2.91,10-4.04,8.01-2.63,16.57-4.06,25.46-4.06s17.45,1.43,25.46,4.06c3.44,1.13,6.78,2.48,10,4.04,27.23,13.19,46,41.08,46,73.35Z"/></g></svg>