<svg xmlns="http://www.w3.org/2000/svg" width="128" height="128" viewBox="0 0 128 128"><rect width="100%" height="100%" fill="#DDDDDD"/><path fill="#999999" d="M43.95 64.015q0-.99.37-1.89t1.01-1.54 1.53-1.02q.9-.38 1.92-.38 1.03 0 1.91.38t1.53 1.02q.66.64 1.04 1.54.39.9.39 1.89 0 1.02-.39 1.9-.38.88-1.04 1.52-.65.64-1.53 1.01t-1.91.37q-1.02 0-1.92-.37-.89-.37-1.53-1.01t-1.01-1.52-.37-1.9m15.2 0q0-.99.37-1.89t1.01-1.54 1.53-1.02q.9-.38 1.92-.38 1.03 0 1.91.38t1.53 1.02q.66.64 1.04 1.54.39.9.39 1.89 0 1.02-.39 1.9-.38.88-1.04 1.52-.65.64-1.53 1.01t-1.91.37q-1.02 0-1.92-.37-.89-.37-1.53-1.01t-1.01-1.52-.37-1.9m15.2 0q0-.99.37-1.89t1.01-1.54 1.53-1.02q.9-.38 1.92-.38 1.03 0 1.91.38t1.53 1.02q.66.64 1.04 1.54.39.9.39 1.89 0 1.02-.39 1.9-.38.88-1.04 1.52-.65.64-1.53 1.01t-1.91.37q-1.02 0-1.92-.37-.89-.37-1.53-1.01t-1.01-1.52-.37-1.9"/></svg>
